{"title":"STD-209 Starring_ Honami Kanzaki ç¥žå´Žä¿å¥ˆç¾Ž","uid":14443533,"size":734514657,"categoryP":"porn","categoryS":"movies","magnet":"?xt=urn:btih:759d2cbc68009afad4eebf8c798465ecb364a9c6&amp;dn=STD-209+Starring_+Honami+Kanzaki+%E7%A5%9E%E5%B4%8E%E4%BF%9D%E5%A5%88%E7%BE%8E&amp;tr=udp%3A%2F%2Ftracker.leechers-paradise.org%3A6969&amp;tr=udp%3A%2F%2Fzer0day.ch%3A1337&amp;tr=udp%3A%2F%2Fopen.demonii.com%3A1337&amp;tr=udp%3A%2F%2Ftracker.coppersurfer.tk%3A6969&amp;tr=udp%3A%2F%2Fexodus.desync.com%3A6969","seeders":0,"leechers":1,"uploader":"drdre10","files":3,"time":1461703369,"description":"https://avmo.pw/en/movie/vte\r\n\r\n\r\nMovie is censored (mosaic)\r\n\r\nFormat                                   : AVI\r\nFormat/Info                              : Audio Video Interleave\r\nFile size                                : 700 MiB\r\nDuration                                 : 1h 35mn\r\nOverall bit rate                         : 1 029 Kbps\r\nWriting application                      : VirtualDubMod 1.5.4.1 (build 2178/release)\r\nWriting library                          : VirtualDubMod build 2178/release\r\n\r\nVideo\r\nID                                       : 0\r\nFormat                                   : MPEG-4 Visual\r\nFormat profile                           : Advanced   \r\nFormat settings, BVOP                    : 1\r\nFormat settings, QPel                    : No\r\nFormat settings, GMC                     : No warppoints\r\nFormat settings, Matrix                  : Custom\r\nCodec ID                                 : XVID\r\nCodec ID/Hint                            : XviD\r\nDuration                                 : 1h 35mn\r\nBit rate                                 : 892 Kbps\r\nWidth                                    : 512 pixels\r\nHeight                                   : 384 pixels\r\nDisplay aspect ratio                     : 4:3\r\nFrame rate                               : 29.970 (29970/1000) fps\r\nColor space                              : YUV\r\nChroma subsampling                       : 4:2:0\r\nBit depth                                : 8 bits\r\nScan type                                : Progressive\r\nCompression mode                         : Lossy\r\nBits/(Pixel*Frame)                       : 0.151\r\nStream size                              : 607 MiB (87%)\r\nWriting library                          : XviD 1.2.0.dev47 (UTC 2006-11-01)\r\n\r\nAudio\r\nID                                       : 1\r\nFormat                                   : MPEG Audio\r\nFormat version                           : Version 1\r\nFormat profile                           : Layer 3\r\nMode                                     : Joint stereo\r\nMode extension                           : MS Stereo\r\nCodec ID                                 : 55\r\nCodec ID/Hint                            : MP3\r\nDuration                                 : 1h 35mn\r\nBit rate mode                            : Constant\r\nBit rate                                 : 128 Kbps\r\nChannel(s)                               : 2 channels\r\nSampling rate                            : 48.0 KHz\r\nCompression mode                         : Lossy\r\nStream size                              : 87.1 MiB (12%)\r\nAlignment                                : Aligned on interleaves\r\nInterleave, duration                     : 67 ms (2.00 video frames)\r\nInterleave, preload duration             : 504 ms\r\nWriting library                          : LAME3.97 \r\nEncoding settings                        : -m j -V 4 -q 2 -lowpass 17 -b 128","torrent":{"xt":"urn:btih:759d2cbc68009afad4eebf8c798465ecb364a9c6","amp;dn":"STD-209+Starring_+Honami+Kanzaki+%E7%A5%9E%E5%B4%8E%E4%BF%9D%E5%A5%88%E7%BE%8E","amp;tr":["udp%3A%2F%2Ftracker.leechers-paradise.org%3A6969","udp%3A%2F%2Fzer0day.ch%3A1337","udp%3A%2F%2Fopen.demonii.com%3A1337","udp%3A%2F%2Ftracker.coppersurfer.tk%3A6969","udp%3A%2F%2Fexodus.desync.com%3A6969"],"infoHash":"759d2cbc68009afad4eebf8c798465ecb364a9c6","infoHashBuffer":{"type":"Buffer","data":[117,157,44,188,104,0,154,250,212,238,191,140,121,132,101,236,179,100,169,198]},"announce":[],"urlList":[]}}